<mxfile host="Electron" modified="2023-05-15T21:55:59.013Z" agent="Mozilla/5.0 (Windows NT 10.0; Win64; x64) AppleWebKit/537.36 (KHTML, like Gecko) draw.io/21.2.8 Chrome/112.0.5615.165 Electron/24.2.0 Safari/537.36" etag="pDoKwXk8_TG7CiGHtl94" version="21.2.8" type="device">
  <diagram id="p1WFtV5cTaJLbCV86L4F" name="Page-1">
    <mxGraphModel dx="1276" dy="614" grid="1" gridSize="10" guides="1" tooltips="1" connect="1" arrows="1" fold="1" page="1" pageScale="1" pageWidth="1169" pageHeight="827" math="0" shadow="0">
      <root>
        <mxCell id="0" />
        <mxCell id="1" parent="0" />
        <mxCell id="Lrtluq5l5MD6FJIpUNIz-151" value=":user.php" style="shape=umlLifeline;perimeter=lifelinePerimeter;whiteSpace=wrap;html=1;container=0;collapsible=0;recursiveResize=0;outlineConnect=0;" parent="1" vertex="1">
          <mxGeometry x="870" y="140" width="156.72" height="450" as="geometry" />
        </mxCell>
        <mxCell id="Lrtluq5l5MD6FJIpUNIz-152" value="click &quot;choose file&quot;&quot;" style="html=1;verticalAlign=bottom;endArrow=block;rounded=0;elbow=vertical;" parent="1" edge="1">
          <mxGeometry x="-0.0586" y="3" width="80" relative="1" as="geometry">
            <mxPoint x="210" y="223" as="sourcePoint" />
            <mxPoint x="390" y="223" as="targetPoint" />
            <mxPoint as="offset" />
          </mxGeometry>
        </mxCell>
        <mxCell id="Lrtluq5l5MD6FJIpUNIz-153" value="" style="shape=umlLifeline;participant=umlActor;perimeter=lifelinePerimeter;whiteSpace=wrap;html=1;container=0;collapsible=0;recursiveResize=0;verticalAlign=top;spacingTop=36;outlineConnect=0;fontFamily=Helvetica;fontSize=12;fontColor=default;align=center;strokeColor=default;fillColor=default;size=50;" parent="1" vertex="1">
          <mxGeometry x="155.1" y="175.14" width="46.09" height="404.86" as="geometry" />
        </mxCell>
        <mxCell id="Lrtluq5l5MD6FJIpUNIz-154" value="Organization" style="text;html=1;align=center;verticalAlign=middle;resizable=1;points=[];autosize=1;strokeColor=none;fillColor=none;container=0;movable=1;rotatable=1;deletable=1;editable=1;connectable=1;locked=0;" parent="1" vertex="1">
          <mxGeometry x="140.1" y="140" width="90" height="30" as="geometry" />
        </mxCell>
        <mxCell id="Lrtluq5l5MD6FJIpUNIz-155" value=":adddataform.php" style="shape=umlLifeline;perimeter=lifelinePerimeter;whiteSpace=wrap;html=1;container=0;collapsible=0;recursiveResize=0;outlineConnect=0;" parent="1" vertex="1">
          <mxGeometry x="300" y="140" width="199.75" height="440" as="geometry" />
        </mxCell>
        <mxCell id="Lrtluq5l5MD6FJIpUNIz-156" value="" style="html=1;points=[];perimeter=orthogonalPerimeter;container=0;" parent="1" vertex="1">
          <mxGeometry x="392.19" y="330" width="15.37" height="30" as="geometry" />
        </mxCell>
        <mxCell id="Lrtluq5l5MD6FJIpUNIz-157" value="redirects to&amp;nbsp;workspace.php?id=uploadeddata" style="html=1;verticalAlign=bottom;endArrow=open;dashed=1;endSize=8;rounded=0;elbow=vertical;" parent="1" target="Lrtluq5l5MD6FJIpUNIz-153" edge="1">
          <mxGeometry x="0.0578" y="-5" relative="1" as="geometry">
            <mxPoint x="649.8324683382916" y="454.9999568965517" as="sourcePoint" />
            <mxPoint x="407.5625966850829" y="455.28" as="targetPoint" />
            <mxPoint as="offset" />
            <Array as="points">
              <mxPoint x="629.8574407139822" y="455.18862514863247" />
            </Array>
          </mxGeometry>
        </mxCell>
        <mxCell id="Lrtluq5l5MD6FJIpUNIz-158" value="" style="html=1;points=[];perimeter=orthogonalPerimeter;container=0;" parent="1" vertex="1">
          <mxGeometry x="392.19" y="220" width="15.37" height="35.17" as="geometry" />
        </mxCell>
        <mxCell id="Lrtluq5l5MD6FJIpUNIz-159" value="updateSizeForMonth ($_FILES[&quot;file-upload&quot;][&quot;size&quot;],&amp;nbsp;" style="html=1;verticalAlign=bottom;endArrow=block;rounded=0;entryX=-0.327;entryY=0.116;entryDx=0;entryDy=0;entryPerimeter=0;" parent="1" target="Lrtluq5l5MD6FJIpUNIz-172" edge="1">
          <mxGeometry x="-0.0015" y="9" width="80" relative="1" as="geometry">
            <mxPoint x="666.04" y="390" as="sourcePoint" />
            <mxPoint x="920" y="390" as="targetPoint" />
            <mxPoint as="offset" />
          </mxGeometry>
        </mxCell>
        <mxCell id="Lrtluq5l5MD6FJIpUNIz-160" value=":uploaddata.php" style="shape=umlLifeline;perimeter=lifelinePerimeter;whiteSpace=wrap;html=1;container=0;collapsible=0;recursiveResize=0;outlineConnect=0;" parent="1" vertex="1">
          <mxGeometry x="580" y="140" width="156.72" height="450" as="geometry" />
        </mxCell>
        <mxCell id="Lrtluq5l5MD6FJIpUNIz-161" value="&lt;font style=&quot;font-size: 14px;&quot;&gt;&lt;b&gt;&lt;u&gt;Add dataset&lt;/u&gt;&lt;/b&gt;&lt;/font&gt;" style="text;html=1;align=center;verticalAlign=middle;resizable=0;points=[];autosize=1;strokeColor=none;fillColor=none;" parent="1" vertex="1">
          <mxGeometry x="500.56000000000006" y="90" width="100" height="30" as="geometry" />
        </mxCell>
        <mxCell id="Lrtluq5l5MD6FJIpUNIz-163" value="" style="html=1;points=[];perimeter=orthogonalPerimeter;container=0;" parent="1" vertex="1">
          <mxGeometry x="650.67" y="360" width="15.37" height="30" as="geometry" />
        </mxCell>
        <mxCell id="Lrtluq5l5MD6FJIpUNIz-165" value="selects a file" style="html=1;verticalAlign=bottom;endArrow=block;rounded=0;elbow=vertical;entryX=0.481;entryY=0.35;entryDx=0;entryDy=0;entryPerimeter=0;" parent="1" source="Lrtluq5l5MD6FJIpUNIz-153" edge="1" target="Lrtluq5l5MD6FJIpUNIz-155">
          <mxGeometry x="0.0114" width="80" relative="1" as="geometry">
            <mxPoint x="192.19" y="290" as="sourcePoint" />
            <mxPoint x="392.19" y="290" as="targetPoint" />
            <mxPoint as="offset" />
          </mxGeometry>
        </mxCell>
        <mxCell id="Lrtluq5l5MD6FJIpUNIz-169" value="" style="html=1;points=[];perimeter=orthogonalPerimeter;container=0;" parent="1" vertex="1">
          <mxGeometry x="650.67" y="425" width="15.37" height="30" as="geometry" />
        </mxCell>
        <mxCell id="Lrtluq5l5MD6FJIpUNIz-172" value="" style="html=1;points=[];perimeter=orthogonalPerimeter;container=0;" parent="1" vertex="1">
          <mxGeometry x="940.68" y="385" width="15.37" height="40" as="geometry" />
        </mxCell>
        <mxCell id="Lrtluq5l5MD6FJIpUNIz-174" value="&quot;The file has been uploaded&quot;" style="html=1;verticalAlign=bottom;endArrow=open;dashed=1;endSize=8;rounded=0;elbow=vertical;exitX=-0.256;exitY=1.005;exitDx=0;exitDy=0;exitPerimeter=0;" parent="1" source="Lrtluq5l5MD6FJIpUNIz-172" edge="1">
          <mxGeometry x="0.0251" y="25" relative="1" as="geometry">
            <mxPoint x="872.19" y="560" as="sourcePoint" />
            <mxPoint x="670" y="425" as="targetPoint" />
            <mxPoint as="offset" />
            <Array as="points" />
          </mxGeometry>
        </mxCell>
        <mxCell id="Lrtluq5l5MD6FJIpUNIz-180" value="file explorer opens" style="html=1;verticalAlign=bottom;endArrow=open;dashed=1;endSize=8;rounded=0;elbow=vertical;" parent="1" target="Lrtluq5l5MD6FJIpUNIz-153" edge="1">
          <mxGeometry x="0.0017" relative="1" as="geometry">
            <mxPoint x="390" y="255.17000000000002" as="sourcePoint" />
            <mxPoint x="220" y="255.17000000000002" as="targetPoint" />
            <mxPoint as="offset" />
            <Array as="points">
              <mxPoint x="370" y="255.17000000000002" />
            </Array>
          </mxGeometry>
        </mxCell>
        <mxCell id="Lrtluq5l5MD6FJIpUNIz-181" value="redirect to&amp;nbsp;uploaddata.php" style="html=1;verticalAlign=bottom;endArrow=block;rounded=0;elbow=vertical;" parent="1" edge="1">
          <mxGeometry x="-0.0586" y="3" width="80" relative="1" as="geometry">
            <mxPoint x="402.67" y="360.24" as="sourcePoint" />
            <mxPoint x="650.67" y="360" as="targetPoint" />
            <mxPoint as="offset" />
          </mxGeometry>
        </mxCell>
        <mxCell id="Lrtluq5l5MD6FJIpUNIz-182" value="clicks upload" style="html=1;verticalAlign=bottom;endArrow=block;rounded=0;elbow=vertical;" parent="1" source="Lrtluq5l5MD6FJIpUNIz-153" edge="1">
          <mxGeometry x="-0.045" width="80" relative="1" as="geometry">
            <mxPoint x="169.19" y="330" as="sourcePoint" />
            <mxPoint x="392.19" y="330" as="targetPoint" />
            <mxPoint as="offset" />
          </mxGeometry>
        </mxCell>
        <mxCell id="Lrtluq5l5MD6FJIpUNIz-184" value="&lt;font style=&quot;font-size: 11px;&quot;&gt;$userid)&lt;/font&gt;" style="text;html=1;align=center;verticalAlign=middle;resizable=0;points=[];autosize=1;strokeColor=none;fillColor=none;" parent="1" vertex="1">
          <mxGeometry x="780" y="384" width="60" height="30" as="geometry" />
        </mxCell>
      </root>
    </mxGraphModel>
  </diagram>
</mxfile>
